<?xml version="1.0" encoding="UTF-8" standalone="no"?><svg xmlns:svg="http://www.w3.org/2000/svg" xmlns="http://www.w3.org/2000/svg" version="1.1" style="overflow:visible" viewBox="-250 -250 500 500" height="2000px" width="2000px"><rect fill-opacity="0" fill="rgb(0,0,0)" height="500" width="500" y="-250" x="-250" /><svg version="1.1" y="-250" x="-250" viewBox="-250 -250 500 500" height="500px" width="500px" style="overflow:visible"><g transform="rotate(0,0,0)" stroke-linejoin="round" fill="#fff"><path stroke-linecap="butt" stroke-linejoin="round" stroke-width="6" stroke-opacity="1" stroke="rgb(176,178,177)" fill="rgb(176,178,177)" d="m46.92444-50.14097a46.924443 46.859024 0 0 1-46.92444 46.85902a46.924443 46.859024 0 0 1-46.92445-46.85902a46.924443 46.859024 0 0 1 46.92445-46.85903a46.924443 46.859024 0 0 1 46.92444 46.85903z" /><path stroke-linecap="butt" stroke-linejoin="round" stroke-width="6" stroke-opacity="1" stroke="rgb(176,178,177)" fill="rgb(176,178,177)" d="m-26.73742 12.10699c-29.40239 0-53.07273 23.57317-53.07273 52.85488v32.03813h159.6203v-32.038131c0-29.28171-23.67033-52.85488-53.07273-52.85488z" /></g></svg></svg>